<svg aria-hidden="true" style="position: absolute; width: 0; height: 0; overflow: hidden;" version="1.1" xmlns="http://www.w3.org/2000/svg" xmlns:xlink="http://www.w3.org/1999/xlink">
<defs>
<symbol id="icon-caret-right" viewBox="0 0 9 28">
<path d="M9 14c0 0.266-0.109 0.516-0.297 0.703l-7 7c-0.187 0.187-0.438 0.297-0.703 0.297-0.547 0-1-0.453-1-1v-14c0-0.547 0.453-1 1-1 0.266 0 0.516 0.109 0.703 0.297l7 7c0.187 0.187 0.297 0.438 0.297 0.703z"></path>
</symbol>
<symbol id="icon-angle-right" viewBox="0 0 9 28">
<path d="M9.297 15c0 0.125-0.063 0.266-0.156 0.359l-7.281 7.281c-0.094 0.094-0.234 0.156-0.359 0.156s-0.266-0.063-0.359-0.156l-0.781-0.781c-0.094-0.094-0.156-0.219-0.156-0.359 0-0.125 0.063-0.266 0.156-0.359l6.141-6.141-6.141-6.141c-0.094-0.094-0.156-0.234-0.156-0.359s0.063-0.266 0.156-0.359l0.781-0.781c0.094-0.094 0.234-0.156 0.359-0.156s0.266 0.063 0.359 0.156l7.281 7.281c0.094 0.094 0.156 0.234 0.156 0.359z"></path>
</symbol>
<symbol id="icon-chevron-circle-right" viewBox="0 0 24 28">
<path d="M11.203 21.797l7.094-7.094c0.391-0.391 0.391-1.016 0-1.406l-7.094-7.094c-0.391-0.391-1.016-0.391-1.406 0l-1.594 1.594c-0.391 0.391-0.391 1.016 0 1.406l4.797 4.797-4.797 4.797c-0.391 0.391-0.391 1.016 0 1.406l1.594 1.594c0.391 0.391 1.016 0.391 1.406 0zM24 14c0 6.625-5.375 12-12 12s-12-5.375-12-12 5.375-12 12-12 12 5.375 12 12z"></path>
</symbol>
<symbol id="icon-chevron-thin-right" viewBox="0 0 20 20">
<path d="M13.25 10l-7.141-7.42c-0.268-0.27-0.268-0.707 0-0.979 0.268-0.27 0.701-0.27 0.969 0l7.83 7.908c0.268 0.271 0.268 0.709 0 0.979l-7.83 7.908c-0.268 0.271-0.701 0.27-0.969 0s-0.268-0.707 0-0.979l7.141-7.417z"></path>
</symbol>
<symbol id="icon-chevrons-right" viewBox="0 0 24 24">
<path d="M13.707 17.707l5-5c0.391-0.391 0.391-1.024 0-1.414l-5-5c-0.391-0.391-1.024-0.391-1.414 0s-0.391 1.024 0 1.414l4.293 4.293-4.293 4.293c-0.391 0.391-0.391 1.024 0 1.414s1.024 0.391 1.414 0zM6.707 17.707l5-5c0.391-0.391 0.391-1.024 0-1.414l-5-5c-0.391-0.391-1.024-0.391-1.414 0s-0.391 1.024 0 1.414l4.293 4.293-4.293 4.293c-0.391 0.391-0.391 1.024 0 1.414s1.024 0.391 1.414 0z"></path>
</symbol>
<symbol id="icon-spinner11" viewBox="0 0 32 32">
<path d="M32 12h-12l4.485-4.485c-2.267-2.266-5.28-3.515-8.485-3.515s-6.219 1.248-8.485 3.515c-2.266 2.267-3.515 5.28-3.515 8.485s1.248 6.219 3.515 8.485c2.267 2.266 5.28 3.515 8.485 3.515s6.219-1.248 8.485-3.515c0.189-0.189 0.371-0.384 0.546-0.583l3.010 2.634c-2.933 3.349-7.239 5.464-12.041 5.464-8.837 0-16-7.163-16-16s7.163-16 16-16c4.418 0 8.418 1.791 11.313 4.687l4.687-4.687v12z"></path>
</symbol>
</defs>
</svg>
